<svg width="226" height="172" viewBox="0 0 226 172" fill="none" xmlns="http://www.w3.org/2000/svg">
<path d="M37.4805 6.85314C33.4633 2.72284 27.9699 0.357504 22.2088 0.277488C16.4477 0.197473 10.8908 2.40934 6.76047 6.42649C2.63016 10.4436 0.26483 15.937 0.184814 21.6981C0.104799 27.4592 2.31666 33.0162 6.3338 37.1465L56.2538 85.9998L6.3338 134.853C4.33426 136.836 2.74718 139.196 1.66411 141.796C0.581048 144.395 0.0234375 147.184 0.0234375 150C0.0234375 152.816 0.581048 155.604 1.66411 158.204C2.74718 160.804 4.33426 163.163 6.3338 165.146C8.31701 167.146 10.6765 168.733 13.2762 169.816C15.8758 170.899 18.6642 171.457 21.4805 171.457C24.2967 171.457 27.0851 170.899 29.6848 169.816C32.2844 168.733 34.6439 167.146 36.6271 165.146L100.627 101.146C102.627 99.1633 104.214 96.8038 105.297 94.2041C106.38 91.6045 106.938 88.8161 106.938 85.9998C106.938 83.1836 106.38 80.3952 105.297 77.7955C104.214 75.1958 102.627 72.8364 100.627 70.8531L37.4805 6.85314ZM218.814 70.8531L154.814 6.85314C150.797 2.836 145.348 0.579185 139.667 0.579185C133.986 0.579185 128.538 2.836 124.52 6.85314C120.503 10.8703 118.247 16.3187 118.247 21.9998C118.247 27.6809 120.503 33.1293 124.52 37.1465L173.587 85.9998L124.52 134.853C122.521 136.836 120.934 139.196 119.851 141.796C118.768 144.395 118.21 147.184 118.21 150C118.21 152.816 118.768 155.604 119.851 158.204C120.934 160.804 122.521 163.163 124.52 165.146C126.504 167.146 128.863 168.733 131.463 169.816C134.062 170.899 136.851 171.457 139.667 171.457C142.483 171.457 145.272 170.899 147.871 169.816C150.471 168.733 152.831 167.146 154.814 165.146L218.814 101.146C220.87 99.2202 222.525 96.9056 223.682 94.3364C224.839 91.7672 225.475 88.9942 225.554 86.1777C225.634 83.3611 225.154 80.5567 224.144 77.9264C223.133 75.2962 221.612 72.8921 219.667 70.8531H218.814Z" fill="#FACC15"/>
</svg>
