<svg width="384" height="512" viewBox="0 0 384 512" fill="none" xmlns="http://www.w3.org/2000/svg">
<path d="M368 128H320V176C320 184.832 312.832 192 304 192C295.168 192 288 184.832 288 176V96C288 43.072 244.928 0 192 0C139.072 0 96 43.072 96 96V176C96 184.832 88.832 192 80 192C71.168 192 64 184.832 64 176V128H16C7.168 128 0 135.168 0 144V432C0 476.096 35.904 512 80 512H304C348.096 512 384 476.096 384 432V144C384 135.168 376.832 128 368 128ZM128 96C128 60.704 156.704 32 192 32C227.296 32 256 60.704 256 96V128H128V96Z" fill="white"/>
</svg>
