<svg width="382" height="223" viewBox="0 0 382 223" fill="none" xmlns="http://www.w3.org/2000/svg">
<path d="M191 223.001C182.527 222.965 174.413 219.57 168.44 213.561L8.43974 53.5607C3.1973 47.4391 0.457905 39.5647 0.768982 31.511C1.08006 23.4574 4.41869 15.8177 10.1177 10.1187C15.8167 4.41967 23.4564 1.08104 31.51 0.769959C39.5637 0.458882 47.4381 3.19828 53.5597 8.44072L191 145.721L328.44 8.44072C334.561 3.19828 342.436 0.458882 350.489 0.769959C358.543 1.08104 366.183 4.41967 371.882 10.1187C377.581 15.8177 380.919 23.4574 381.231 31.511C381.542 39.5647 378.802 47.4391 373.56 53.5607L213.56 213.561C207.586 219.57 199.473 222.965 191 223.001Z" fill="white"/>
</svg>
