<svg width="500" height="438" viewBox="0 0 500 438" fill="none" xmlns="http://www.w3.org/2000/svg">
<path d="M171.875 218.752L93.75 218.752L93.75 156.252C93.75 121.779 121.777 93.752 156.25 93.752H164.062C167.142 93.7593 170.193 93.1581 173.04 91.9829C175.887 90.8076 178.474 89.0815 180.652 86.9036C182.83 84.7257 184.556 82.139 185.731 79.292C186.906 76.4451 187.507 73.394 187.5 70.314V23.439C187.507 20.359 186.906 17.3078 185.731 14.4609C184.556 11.6139 182.83 9.0272 180.652 6.8493C178.474 4.67141 175.887 2.94527 173.04 1.77002C170.193 0.594766 167.142 -0.00643943 164.062 0.000946045H156.25C69.922 0.000946045 0 69.9229 0 156.251L0 390.627C0 416.506 20.996 437.502 46.875 437.502H171.875C197.754 437.502 218.75 416.506 218.75 390.627V265.627C218.75 239.748 197.754 218.752 171.875 218.752ZM453.125 218.752L375 218.752V156.252C375 121.779 403.027 93.752 437.5 93.752H445.312C448.392 93.7593 451.443 93.1581 454.29 91.9829C457.137 90.8076 459.724 89.0815 461.902 86.9036C464.08 84.7257 465.806 82.139 466.981 79.292C468.156 76.4451 468.757 73.394 468.75 70.314V23.439C468.757 20.359 468.156 17.3078 466.981 14.4609C465.806 11.6139 464.08 9.0272 461.902 6.8493C459.724 4.67141 457.137 2.94527 454.29 1.77002C451.443 0.594766 448.392 -0.00643943 445.312 0.000946045H437.5C351.172 0.000946045 281.25 69.9229 281.25 156.251V390.627C281.25 416.506 302.246 437.502 328.125 437.502H453.125C479.004 437.502 500 416.506 500 390.627V265.627C500 239.748 479.004 218.752 453.125 218.752Z" fill="#A74F4E"/>
</svg>
