<svg width="416" height="382" viewBox="0 0 416 382" fill="none" xmlns="http://www.w3.org/2000/svg">
<path d="M384 159.001H109.28L214.56 53.5607C219.802 47.4391 222.542 39.5646 222.231 31.511C221.92 23.4574 218.581 15.8177 212.882 10.1187C207.183 4.41967 199.543 1.08104 191.49 0.769959C183.436 0.458882 175.562 3.19828 169.44 8.44072L9.44001 168.441C7.92633 169.94 6.5847 171.604 5.44001 173.401C4.90178 174.164 4.42048 174.966 4.00001 175.801L2.40001 179.001L1.44001 182.201C1.34803 183.105 1.34803 184.016 1.44001 184.921C0.620949 189.04 0.620949 193.281 1.44001 197.401C1.34803 198.305 1.34803 199.216 1.44001 200.121L2.40001 203.321C2.40001 204.441 3.52001 205.401 4.00001 206.521C4.42048 207.355 4.90178 208.157 5.44001 208.921C6.5847 210.718 7.92633 212.381 9.44001 213.881L169.44 373.881C175.562 379.123 183.436 381.863 191.49 381.551C199.543 381.24 207.183 377.902 212.882 372.203C218.581 366.504 221.92 358.864 222.231 350.81C222.542 342.757 219.802 334.882 214.56 328.761L109.28 223.001H384C392.487 223.001 400.626 219.629 406.627 213.628C412.629 207.627 416 199.488 416 191.001C416 182.514 412.629 174.374 406.627 168.373C400.626 162.372 392.487 159.001 384 159.001Z" fill="white"/>
</svg>
