<svg width="428" height="342" viewBox="0 0 428 342" fill="none" xmlns="http://www.w3.org/2000/svg">
<path d="M363.333 0.332031H64.666C47.6922 0.332031 31.4135 7.07487 19.4112 19.0772C7.40886 31.0795 0.666016 47.3582 0.666016 64.332V277.665C0.666016 294.639 7.40886 310.918 19.4112 322.92C31.4135 334.923 47.6922 341.665 64.666 341.665H363.333C380.307 341.665 396.585 334.923 408.588 322.92C420.59 310.918 427.333 294.639 427.333 277.665V64.332C427.333 47.3582 420.59 31.0795 408.588 19.0772C396.585 7.07487 380.307 0.332031 363.333 0.332031ZM354.586 42.9987L229.146 168.439C227.163 170.438 224.803 172.025 222.204 173.108C219.604 174.191 216.816 174.749 213.999 174.749C211.183 174.749 208.395 174.191 205.795 173.108C203.195 172.025 200.836 170.438 198.853 168.439L73.4127 42.9987H354.586ZM384.666 277.665C384.666 283.323 382.418 288.75 378.418 292.75C374.417 296.751 368.991 298.999 363.333 298.999H64.666C59.0081 298.999 53.5818 296.751 49.5811 292.75C45.5803 288.75 43.3327 283.323 43.3327 277.665V73.0787L168.773 198.519C180.773 210.504 197.039 217.236 213.999 217.236C230.959 217.236 247.226 210.504 259.226 198.519L384.666 73.0787V277.665Z" fill="white"/>
</svg>
