<svg width="512" height="440" viewBox="0 0 512 440" fill="none" xmlns="http://www.w3.org/2000/svg">
<path d="M475.429 134.287C475.429 118.858 473.381 105.239 469.286 93.4294C465.19 81.6199 459.952 72.2389 453.571 65.2866C447.19 58.3342 439.429 52.6675 430.286 48.2866C421.143 43.9056 412.19 40.9532 403.429 39.4294C394.667 37.9056 385.333 37.1437 375.429 37.1437C365.524 37.1437 354.857 39.5723 343.429 44.4294C332 49.2866 321.476 55.3818 311.857 62.7151C302.238 70.0485 294 76.9056 287.143 83.2866C280.286 89.6675 274.571 95.5247 270 100.858C266.571 105.048 261.905 107.144 256 107.144C250.095 107.144 245.429 105.048 242 100.858C237.429 95.5247 231.714 89.6675 224.857 83.2866C218 76.9056 209.762 70.0485 200.143 62.7151C190.524 55.3818 180 49.2866 168.571 44.4294C157.143 39.5723 146.476 37.1437 136.571 37.1437C126.667 37.1437 117.333 37.9056 108.571 39.4294C99.8095 40.9532 90.8571 43.9056 81.7143 48.2866C72.5714 52.6675 64.8095 58.3342 58.4286 65.2866C52.0476 72.2389 46.8095 81.6199 42.7143 93.4294C38.619 105.239 36.5714 118.858 36.5714 134.287C36.5714 166.287 54.381 200.096 90 235.715L256 395.715L421.714 236.001C457.524 200.191 475.429 166.287 475.429 134.287ZM512 134.287C512 176.382 490.19 219.239 446.571 262.858L268.571 434.287C265.143 437.715 260.952 439.429 256 439.429C251.048 439.429 246.857 437.715 243.429 434.287L65.1429 262.287C63.2381 260.763 60.6191 258.287 57.2857 254.858C53.9524 251.429 48.6667 245.191 41.4286 236.144C34.1905 227.096 27.7143 217.81 22 208.287C16.2857 198.763 11.1905 187.239 6.71429 173.715C2.2381 160.191 0 147.048 0 134.287C0 92.3818 12.0952 59.6199 36.2857 36.0008C60.4762 12.3818 93.9048 0.572266 136.571 0.572266C148.381 0.572266 160.429 2.61988 172.714 6.71512C185 10.8104 196.429 16.3342 207 23.2866C217.571 30.2389 226.667 36.7627 234.286 42.858C241.905 48.9532 249.143 55.4294 256 62.2866C262.857 55.4294 270.095 48.9532 277.714 42.858C285.333 36.7627 294.429 30.2389 305 23.2866C315.571 16.3342 327 10.8104 339.286 6.71512C351.571 2.61988 363.619 0.572266 375.429 0.572266C418.095 0.572266 451.524 12.3818 475.714 36.0008C499.905 59.6199 512 92.3818 512 134.287Z" fill="white"/>
</svg>
