<svg width="428" height="428" viewBox="0 0 428 428" fill="none" xmlns="http://www.w3.org/2000/svg">
<path d="M327.919 74.4813C322.856 74.4813 317.907 75.9827 313.697 78.7957C309.487 81.6086 306.206 85.6068 304.268 90.2846C302.33 94.9624 301.823 100.11 302.811 105.076C303.799 110.042 306.237 114.603 309.817 118.183C313.398 121.763 317.959 124.202 322.925 125.189C327.891 126.177 333.038 125.67 337.716 123.733C342.394 121.795 346.392 118.514 349.205 114.304C352.018 110.094 353.519 105.144 353.519 100.081C353.519 93.2918 350.822 86.7803 346.021 81.9794C341.22 77.1784 334.709 74.4813 327.919 74.4813ZM426.053 126.108C425.638 108.408 422.323 90.8952 416.239 74.268C410.815 60.0415 402.372 47.1592 391.493 36.508C380.929 25.5731 368.017 17.1837 353.733 11.9746C337.149 5.70607 319.617 2.31512 301.893 1.94797C279.279 0.667968 272.026 0.667969 213.999 0.667969C155.973 0.667969 148.719 0.667968 126.106 1.94797C108.381 2.31512 90.8493 5.70607 74.266 11.9746C60.0084 17.2365 47.1073 25.6186 36.506 36.508C25.5711 47.0718 17.1818 59.984 11.9727 74.268C5.70411 90.8513 2.31316 108.383 1.94601 126.108C0.666014 148.721 0.666016 155.975 0.666016 214.001C0.666016 272.028 0.666014 279.281 1.94601 301.895C2.31316 319.619 5.70411 337.151 11.9727 353.735C17.1818 368.019 25.5711 380.931 36.506 391.495C47.1073 402.384 60.0084 410.766 74.266 416.028C90.8493 422.296 108.381 425.687 126.106 426.055C148.719 427.335 155.973 427.335 213.999 427.335C272.026 427.335 279.279 427.335 301.893 426.055C319.617 425.687 337.149 422.296 353.733 416.028C368.017 410.819 380.929 402.43 391.493 391.495C402.42 380.883 410.87 367.989 416.239 353.735C422.323 337.107 425.638 319.595 426.053 301.895C426.053 279.281 427.333 272.028 427.333 214.001C427.333 155.975 427.333 148.721 426.053 126.108ZM387.653 299.335C387.497 312.876 385.045 326.294 380.399 339.015C376.993 348.299 371.522 356.688 364.399 363.548C357.48 370.599 349.108 376.059 339.866 379.548C327.145 384.193 313.728 386.646 300.186 386.801C278.853 387.868 270.959 388.081 214.853 388.081C158.746 388.081 150.853 388.081 129.519 386.801C115.458 387.065 101.457 384.899 88.1327 380.401C79.296 376.734 71.3083 371.287 64.666 364.401C57.5852 357.548 52.1827 349.152 48.8794 339.868C43.6709 326.965 40.7821 313.243 40.346 299.335C40.346 278.001 39.066 270.108 39.066 214.001C39.066 157.895 39.066 150.001 40.346 128.668C40.4416 114.824 42.9689 101.104 47.8127 88.1346C51.5684 79.1301 57.333 71.1033 64.666 64.668C71.1474 57.3329 79.1575 51.5073 88.1327 47.6013C101.136 42.9089 114.842 40.4563 128.666 40.348C149.999 40.348 157.893 39.068 213.999 39.068C270.106 39.068 277.999 39.068 299.333 40.348C312.874 40.5033 326.292 42.9559 339.013 47.6013C348.707 51.1992 357.408 57.0487 364.399 64.668C371.39 71.2211 376.853 79.2329 380.399 88.1346C385.141 101.125 387.595 114.839 387.653 128.668C388.719 150.001 388.933 157.895 388.933 214.001C388.933 270.108 388.719 278.001 387.653 299.335ZM213.999 104.561C192.363 104.603 171.225 111.058 153.256 123.109C135.287 135.16 121.293 152.267 113.042 172.268C104.792 192.269 102.655 214.267 106.902 235.482C111.148 256.698 121.588 276.178 136.902 291.462C152.216 306.746 171.717 317.148 192.94 321.354C214.164 325.559 236.158 323.38 256.143 315.09C276.128 306.801 293.207 292.773 305.223 274.781C317.239 256.788 323.653 235.637 323.653 214.001C323.681 199.604 320.862 185.342 315.359 172.038C309.856 158.733 301.777 146.648 291.586 136.477C281.395 126.306 269.294 118.25 255.979 112.773C242.664 107.296 228.397 104.505 213.999 104.561ZM213.999 285.041C199.949 285.041 186.214 280.875 174.532 273.069C162.849 265.263 153.744 254.168 148.367 241.187C142.99 228.206 141.583 213.922 144.324 200.142C147.065 186.362 153.831 173.704 163.766 163.768C173.702 153.833 186.36 147.067 200.14 144.326C213.921 141.585 228.204 142.992 241.185 148.369C254.166 153.746 265.261 162.851 273.067 174.534C280.873 186.216 285.039 199.951 285.039 214.001C285.039 223.33 283.202 232.568 279.632 241.187C276.062 249.806 270.829 257.637 264.232 264.234C257.636 270.831 249.804 276.064 241.185 279.634C232.566 283.204 223.328 285.041 213.999 285.041Z" fill="white"/>
</svg>
