<svg width="481" height="457" viewBox="0 0 481 457" fill="none" xmlns="http://www.w3.org/2000/svg">
<path d="M386.51 455.587C369.45 467.739 259.981 390.708 239.015 390.539C218.049 390.371 107.349 465.629 90.4869 453.205C73.6253 440.78 113.266 313.161 106.949 293.227C100.632 273.292 -5.35787 191.564 1.28138 171.733C7.9221 151.903 141.89 150.061 158.951 137.909C176.011 125.758 221.208 -0.011427 242.175 0.156418C263.14 0.325722 306.295 126.806 323.156 139.231C340.018 151.655 473.94 155.654 480.259 175.588C486.576 195.522 379.28 275.534 372.639 295.365C366 315.195 403.571 443.435 386.51 455.587Z" fill="#F8B84E"/>
</svg>
