<svg width="426" height="428" viewBox="0 0 426 428" fill="none" xmlns="http://www.w3.org/2000/svg">
<path d="M312.133 256.666C307.866 254.533 280.133 241.733 275.866 239.599C271.599 237.466 267.333 237.466 263.066 241.733C258.799 245.999 250.266 258.799 245.999 263.066C243.866 267.333 239.599 267.333 235.333 265.199C220.399 258.799 205.466 250.266 192.666 239.599C181.999 228.933 171.333 216.133 162.799 203.333C160.666 199.066 162.799 194.799 164.933 192.666C167.066 190.533 169.199 186.266 173.466 184.133C175.599 181.999 177.733 177.733 177.733 175.599C179.866 173.466 179.866 169.199 177.733 167.066C175.599 164.933 164.933 139.333 160.666 128.666C158.533 113.733 154.266 113.733 149.999 113.733H139.333C135.066 113.733 128.666 117.999 126.533 120.133C113.733 132.933 107.333 147.866 107.333 164.933C109.466 184.133 115.866 203.333 128.666 220.399C152.133 254.533 181.999 282.266 218.266 299.333C228.933 303.599 237.466 307.866 248.133 309.999C258.799 314.266 269.466 314.266 282.266 312.133C297.199 309.999 309.999 299.333 318.533 286.533C322.799 277.999 322.799 269.466 320.666 260.933L312.133 256.666ZM365.466 62.5328C282.266 -20.6672 147.866 -20.6672 64.666 62.5328C-3.60065 130.799 -16.4007 235.333 30.5327 318.533L0.666016 427.333L113.733 397.466C145.733 414.533 179.866 423.066 213.999 423.066C331.333 423.066 425.199 329.199 425.199 211.866C427.333 156.399 403.866 103.066 365.466 62.5328ZM307.866 361.199C280.133 378.266 248.133 388.933 213.999 388.933C181.999 388.933 152.133 380.399 124.399 365.466L117.999 361.199L51.866 378.266L68.9327 314.266L64.666 307.866C13.466 222.533 39.066 115.866 122.266 62.5328C205.466 9.19948 312.133 36.9328 363.333 117.999C414.533 201.199 391.066 309.999 307.866 361.199Z" fill="white"/>
</svg>
