<svg width="470" height="331" viewBox="0 0 470 331" fill="none" xmlns="http://www.w3.org/2000/svg">
<path d="M469.666 117.146C470.721 86.6109 464.043 56.304 450.253 29.0397C440.896 17.8524 427.911 10.3028 413.559 7.70633C354.2 2.3202 294.595 0.112602 234.999 1.09299C175.621 0.0681042 116.23 2.20446 57.0793 7.493C45.3848 9.62028 34.5623 15.1056 25.9326 23.2797C6.7326 40.9863 4.59927 71.2797 2.46594 96.8797C-0.629271 142.908 -0.629271 189.092 2.46594 235.12C3.08311 249.528 5.22847 263.831 8.86594 277.786C11.4382 288.561 16.6424 298.53 24.0126 306.8C32.701 315.407 43.7755 321.204 55.7993 323.44C101.792 329.117 148.135 331.47 194.466 330.48C269.133 331.546 334.626 330.48 412.066 324.506C424.385 322.408 435.771 316.603 444.706 307.866C450.678 301.891 455.14 294.578 457.719 286.533C465.349 263.122 469.096 238.621 468.813 214C469.666 202.053 469.666 129.946 469.666 117.146ZM186.786 226.8V94.7463L313.079 161.093C277.666 180.72 230.946 202.906 186.786 226.8Z" fill="white"/>
</svg>
